<svg width="104" height="101" viewBox="0 0 104 101" fill="none" xmlns="http://www.w3.org/2000/svg">
<g clip-path="url(#clip0_88_9)">
<path d="M51.928 0.880554C23.6545 0.880554 0.727539 23.8032 0.727539 52.081C0.727539 74.7027 15.398 93.8948 35.7415 100.665C38.3003 101.139 39.2398 99.5542 39.2398 98.2019C39.2398 96.981 39.1923 92.9477 39.1702 88.6694C24.9262 91.7666 21.9206 82.6284 21.9206 82.6284C19.5915 76.7104 16.2357 75.1368 16.2357 75.1368C11.5903 71.959 16.5859 72.0243 16.5859 72.0243C21.7273 72.3855 24.4345 77.3005 24.4345 77.3005C29.001 85.1279 36.4122 82.865 39.3339 81.5567C39.7934 78.2476 41.1203 75.9889 42.5846 74.7103C31.2123 73.4156 19.2575 69.0254 19.2575 49.4068C19.2575 43.8169 21.2576 39.2495 24.5328 35.6639C24.0012 34.3743 22.2487 29.1668 25.0288 22.1143C25.0288 22.1143 29.3283 20.7382 39.1126 27.3625C43.1967 26.2281 47.5768 25.6592 51.928 25.6397C56.2792 25.6592 60.6626 26.2281 64.7544 27.3625C74.5268 20.7382 78.8203 22.1143 78.8203 22.1143C81.6072 29.1668 79.8538 34.3743 79.3222 35.6639C82.6051 39.2495 84.5917 43.8169 84.5917 49.4068C84.5917 69.072 72.614 73.402 61.2129 74.6696C63.0493 76.2585 64.6857 79.3744 64.6857 84.1512C64.6857 91.0019 64.6263 96.5155 64.6263 98.2019C64.6263 99.5644 65.5479 101.161 68.1432 100.658C88.4757 93.8804 103.128 74.695 103.128 52.081C103.128 23.8032 80.204 0.880554 51.928 0.880554ZM19.9038 73.8166C19.791 74.071 19.3908 74.1473 19.0262 73.9726C18.6549 73.8056 18.4463 73.4588 18.5667 73.2036C18.6769 72.9416 19.0779 72.8687 19.4485 73.0442C19.8207 73.2113 20.0326 73.5614 19.9038 73.8166ZM22.4223 76.0639C22.1781 76.2902 21.7007 76.1851 21.3768 75.8273C21.0419 75.4703 20.9792 74.993 21.2268 74.7632C21.4786 74.5369 21.9415 74.6428 22.2773 74.9998C22.6122 75.361 22.6775 75.8349 22.4223 76.0639ZM24.15 78.9391C23.8363 79.157 23.3234 78.9527 23.0063 78.4974C22.6926 78.0421 22.6926 77.496 23.0131 77.2773C23.331 77.0585 23.8363 77.2552 24.1577 77.7071C24.4705 78.1701 24.4705 78.7161 24.15 78.9391ZM27.0721 82.269C26.7914 82.5785 26.1937 82.4954 25.7562 82.0732C25.3085 81.6603 25.1839 81.0744 25.4654 80.7649C25.7494 80.4546 26.3506 80.5419 26.7914 80.9608C27.2357 81.3728 27.3714 81.9629 27.0721 82.269ZM30.8485 83.3932C30.7248 83.7942 30.1491 83.9765 29.5691 83.8061C28.99 83.6306 28.6111 83.1609 28.7281 82.7556C28.8485 82.352 29.4267 82.1621 30.0109 82.3444C30.5891 82.519 30.9689 82.9853 30.8485 83.3932ZM35.1463 83.87C35.1607 84.2922 34.669 84.6424 34.0602 84.65C33.4481 84.6636 32.9529 84.3219 32.9461 83.9065C32.9461 83.48 33.4269 83.1332 34.039 83.123C34.6478 83.1112 35.1463 83.4503 35.1463 83.87ZM39.3684 83.7082C39.4413 84.1202 39.0182 84.5433 38.4137 84.6561C37.8194 84.7646 37.2691 84.5102 37.1936 84.1016C37.1199 83.6793 37.5506 83.2562 38.1441 83.1469C38.7495 83.0417 39.2912 83.2893 39.3684 83.7082Z" fill="#161614"/>
</g>
<defs>
<clipPath id="clip0_88_9">
<rect width="102.4" height="100" fill="white" transform="translate(0.727539 0.880554)"/>
</clipPath>
</defs>
</svg>
