<svg width="100" height="100" viewBox="0 0 100 100" fill="none" xmlns="http://www.w3.org/2000/svg">
<path d="M94 51.0417C94 47.7917 93.7083 44.6667 93.1667 41.6667H50V59.3959H74.6667C73.6042 65.125 70.375 69.9792 65.5208 73.2292V84.7292H80.3333C89 76.75 94 65 94 51.0417Z" fill="#4285F4"/>
<path d="M50.0001 95.8333C62.3751 95.8333 72.7501 91.7291 80.3334 84.7291L65.5209 73.2291C61.4167 75.9791 56.1667 77.6041 50.0001 77.6041C38.0626 77.6041 27.9584 69.5416 24.3542 58.7083H9.04175V70.5833C16.5834 85.5625 32.0834 95.8333 50.0001 95.8333Z" fill="#34A853"/>
<path d="M24.3543 58.7084C23.4376 55.9584 22.9168 53.0209 22.9168 50C22.9168 46.9792 23.4376 44.0417 24.3543 41.2917V29.4167H9.04175C5.83341 35.8036 4.16392 42.8526 4.16675 50C4.16675 57.3959 5.93759 64.3959 9.04175 70.5834L24.3543 58.7084Z" fill="#FBBC05"/>
<path d="M50.0001 22.3959C56.7292 22.3959 62.7709 24.7084 67.5209 29.25L80.6668 16.1042C72.7292 8.70835 62.3542 4.16669 50.0001 4.16669C32.0834 4.16669 16.5834 14.4375 9.04175 29.4167L24.3542 41.2917C27.9584 30.4584 38.0626 22.3959 50.0001 22.3959Z" fill="#EA4335"/>
</svg>
